<?xml version="1.0" encoding="UTF-8"?>
<svg width="247px" height="18px" viewBox="0 0 247 18" version="1.1" xmlns="http://www.w3.org/2000/svg" xmlns:xlink="http://www.w3.org/1999/xlink">
    <!-- Generator: Sketch 40 (33762) - http://www.bohemiancoding.com/sketch -->
    <title>logo</title>
    <desc>Created with Sketch.</desc>
    <defs>
        <linearGradient x1="0%" y1="0%" x2="101.999998%" y2="100.999999%" id="linearGradient-1">
            <stop stop-color="#3023AE" offset="0%"></stop>
            <stop stop-color="#C96DD8" offset="100%"></stop>
        </linearGradient>
    </defs>
    <g id="Page-1" stroke="none" stroke-width="1" fill="none" fill-rule="evenodd" opacity="0.900000036">
        <g id="styleguide" transform="translate(-1074.000000, -46.000000)" fill="url(#linearGradient-1)">
            <path d="M1081.128,63.328 C1079.84799,63.328 1078.59201,63.1080022 1077.36,62.668 C1076.12799,62.2279978 1075.00801,61.5520046 1074,60.64 L1076.184,58.024 C1076.952,58.6480031 1077.74,59.1439982 1078.548,59.512 C1079.356,59.8800018 1080.24,60.064 1081.2,60.064 C1081.968,60.064 1082.564,59.9240014 1082.988,59.644 C1083.412,59.3639986 1083.624,58.9760025 1083.624,58.48 L1083.624,58.432 C1083.624,58.1919988 1083.58,57.9800009 1083.492,57.796 C1083.404,57.6119991 1083.236,57.4400008 1082.988,57.28 C1082.74,57.1199992 1082.396,56.9600008 1081.956,56.8 C1081.516,56.6399992 1080.944,56.4720009 1080.24,56.296 C1079.392,56.087999 1078.624,55.8560013 1077.936,55.6 C1077.248,55.3439987 1076.664,55.0280019 1076.184,54.652 C1075.704,54.2759981 1075.332,53.8080028 1075.068,53.248 C1074.804,52.6879972 1074.672,51.9920042 1074.672,51.16 L1074.672,51.112 C1074.672,50.3439962 1074.816,49.6520031 1075.104,49.036 C1075.392,48.4199969 1075.796,47.8880022 1076.316,47.44 C1076.836,46.9919978 1077.456,46.6480012 1078.176,46.408 C1078.896,46.1679988 1079.688,46.048 1080.552,46.048 C1081.78401,46.048 1082.91599,46.2319982 1083.948,46.6 C1084.98001,46.9680018 1085.928,47.4959966 1086.792,48.184 L1084.872,50.968 C1084.12,50.4559974 1083.384,50.0520015 1082.664,49.756 C1081.944,49.4599985 1081.224,49.312 1080.504,49.312 C1079.784,49.312 1079.244,49.4519986 1078.884,49.732 C1078.524,50.0120014 1078.344,50.3599979 1078.344,50.776 L1078.344,50.824 C1078.344,51.0960014 1078.396,51.331999 1078.5,51.532 C1078.604,51.732001 1078.792,51.9119992 1079.064,52.072 C1079.336,52.2320008 1079.708,52.3839993 1080.18,52.528 C1080.652,52.6720007 1081.248,52.839999 1081.968,53.032 C1082.816,53.2560011 1083.572,53.5079986 1084.236,53.788 C1084.9,54.0680014 1085.46,54.403998 1085.916,54.796 C1086.372,55.188002 1086.716,55.6479974 1086.948,56.176 C1087.18,56.7040026 1087.296,57.3359963 1087.296,58.072 L1087.296,58.12 C1087.296,58.9520042 1087.144,59.6919968 1086.84,60.34 C1086.536,60.9880032 1086.112,61.5319978 1085.568,61.972 C1085.024,62.4120022 1084.376,62.7479988 1083.624,62.98 C1082.872,63.2120012 1082.04,63.328 1081.128,63.328 L1081.128,63.328 Z M1094.424,49.696 L1089.312,49.696 L1089.312,46.288 L1103.232,46.288 L1103.232,49.696 L1098.12,49.696 L1098.12,63.088 L1094.424,63.088 L1094.424,49.696 Z M1114.272,59.968 C1115.008,59.968 1115.688,59.8320014 1116.312,59.56 C1116.936,59.2879986 1117.468,58.9120024 1117.908,58.432 C1118.348,57.9519976 1118.692,57.3960032 1118.94,56.764 C1119.188,56.1319968 1119.312,55.4560036 1119.312,54.736 L1119.312,54.688 C1119.312,53.9679964 1119.188,53.2880032 1118.94,52.648 C1118.692,52.0079968 1118.34,51.4480024 1117.884,50.968 C1117.428,50.4879976 1116.888,50.1080014 1116.264,49.828 C1115.64,49.5479986 1114.96,49.408 1114.224,49.408 C1113.472,49.408 1112.788,49.5439986 1112.172,49.816 C1111.556,50.0880014 1111.028,50.4639976 1110.588,50.944 C1110.148,51.4240024 1109.804,51.9799968 1109.556,52.612 C1109.308,53.2440032 1109.184,53.9199964 1109.184,54.64 L1109.184,54.688 C1109.184,55.4080036 1109.308,56.0879968 1109.556,56.728 C1109.804,57.3680032 1110.156,57.9279976 1110.612,58.408 C1111.068,58.8880024 1111.604,59.2679986 1112.22,59.548 C1112.836,59.8280014 1113.52,59.968 1114.272,59.968 L1114.272,59.968 Z M1114.224,63.376 C1112.92799,63.376 1111.73601,63.1480023 1110.648,62.692 C1109.55999,62.2359977 1108.62,61.6200039 1107.828,60.844 C1107.036,60.0679961 1106.42,59.1560052 1105.98,58.108 C1105.54,57.0599948 1105.32,55.936006 1105.32,54.736 L1105.32,54.688 C1105.32,53.487994 1105.544,52.3640052 1105.992,51.316 C1106.44,50.2679948 1107.06,49.348004 1107.852,48.556 C1108.644,47.763996 1109.58799,47.1400023 1110.684,46.684 C1111.78001,46.2279977 1112.97599,46 1114.272,46 C1115.56801,46 1116.75999,46.2279977 1117.848,46.684 C1118.93601,47.1400023 1119.876,47.7559961 1120.668,48.532 C1121.46,49.3080039 1122.076,50.2199948 1122.516,51.268 C1122.956,52.3160052 1123.176,53.439994 1123.176,54.64 L1123.176,54.688 C1123.176,55.888006 1122.952,57.0119948 1122.504,58.06 C1122.056,59.1080052 1121.436,60.027996 1120.644,60.82 C1119.852,61.612004 1118.90801,62.2359977 1117.812,62.692 C1116.71599,63.1480023 1115.52001,63.376 1114.224,63.376 L1114.224,63.376 Z M1134.336,63.376 C1133.10399,63.376 1131.96001,63.1520022 1130.904,62.704 C1129.84799,62.2559978 1128.936,61.6440039 1128.168,60.868 C1127.4,60.0919961 1126.8,59.1760053 1126.368,58.12 C1125.936,57.0639947 1125.72,55.936006 1125.72,54.736 L1125.72,54.688 C1125.72,53.487994 1125.936,52.3640052 1126.368,51.316 C1126.8,50.2679948 1127.4,49.348004 1128.168,48.556 C1128.936,47.763996 1129.85599,47.1400023 1130.928,46.684 C1132.00001,46.2279977 1133.18399,46 1134.48,46 C1135.264,46 1135.98,46.0639994 1136.628,46.192 C1137.276,46.3200006 1137.864,46.4959989 1138.392,46.72 C1138.92,46.9440011 1139.408,47.2159984 1139.856,47.536 C1140.304,47.8560016 1140.72,48.2079981 1141.104,48.592 L1138.752,51.304 C1138.096,50.711997 1137.428,50.2480017 1136.748,49.912 C1136.068,49.5759983 1135.304,49.408 1134.456,49.408 C1133.752,49.408 1133.1,49.5439986 1132.5,49.816 C1131.9,50.0880014 1131.384,50.4639976 1130.952,50.944 C1130.52,51.4240024 1130.184,51.9799968 1129.944,52.612 C1129.704,53.2440032 1129.584,53.9199964 1129.584,54.64 L1129.584,54.688 C1129.584,55.4080036 1129.704,56.0879968 1129.944,56.728 C1130.184,57.3680032 1130.516,57.9279976 1130.94,58.408 C1131.364,58.8880024 1131.876,59.2679986 1132.476,59.548 C1133.076,59.8280014 1133.736,59.968 1134.456,59.968 C1135.416,59.968 1136.228,59.7920018 1136.892,59.44 C1137.556,59.0879982 1138.216,58.608003 1138.872,58 L1141.224,60.376 C1140.792,60.8400023 1140.344,61.2559982 1139.88,61.624 C1139.416,61.9920018 1138.908,62.3079987 1138.356,62.572 C1137.804,62.8360013 1137.2,63.0359993 1136.544,63.172 C1135.888,63.3080007 1135.152,63.376 1134.336,63.376 L1134.336,63.376 Z M1144.176,46.288 L1147.872,46.288 L1147.872,53.632 L1154.688,46.288 L1159.152,46.288 L1152.312,53.416 L1159.464,63.088 L1155.024,63.088 L1149.816,55.936 L1147.872,57.952 L1147.872,63.088 L1144.176,63.088 L1144.176,46.288 Z M1167.672,63.328 C1166.39199,63.328 1165.13601,63.1080022 1163.904,62.668 C1162.67199,62.2279978 1161.55201,61.5520046 1160.544,60.64 L1162.728,58.024 C1163.496,58.6480031 1164.284,59.1439982 1165.092,59.512 C1165.9,59.8800018 1166.784,60.064 1167.744,60.064 C1168.512,60.064 1169.108,59.9240014 1169.532,59.644 C1169.956,59.3639986 1170.168,58.9760025 1170.168,58.48 L1170.168,58.432 C1170.168,58.1919988 1170.124,57.9800009 1170.036,57.796 C1169.948,57.6119991 1169.78,57.4400008 1169.532,57.28 C1169.284,57.1199992 1168.94,56.9600008 1168.5,56.8 C1168.06,56.6399992 1167.488,56.4720009 1166.784,56.296 C1165.936,56.087999 1165.168,55.8560013 1164.48,55.6 C1163.792,55.3439987 1163.208,55.0280019 1162.728,54.652 C1162.248,54.2759981 1161.876,53.8080028 1161.612,53.248 C1161.348,52.6879972 1161.216,51.9920042 1161.216,51.16 L1161.216,51.112 C1161.216,50.3439962 1161.36,49.6520031 1161.648,49.036 C1161.936,48.4199969 1162.34,47.8880022 1162.86,47.44 C1163.38,46.9919978 1164,46.6480012 1164.72,46.408 C1165.44,46.1679988 1166.232,46.048 1167.096,46.048 C1168.32801,46.048 1169.45999,46.2319982 1170.492,46.6 C1171.52401,46.9680018 1172.472,47.4959966 1173.336,48.184 L1171.416,50.968 C1170.664,50.4559974 1169.928,50.0520015 1169.208,49.756 C1168.488,49.4599985 1167.768,49.312 1167.048,49.312 C1166.328,49.312 1165.788,49.4519986 1165.428,49.732 C1165.068,50.0120014 1164.888,50.3599979 1164.888,50.776 L1164.888,50.824 C1164.888,51.0960014 1164.94,51.331999 1165.044,51.532 C1165.148,51.732001 1165.336,51.9119992 1165.608,52.072 C1165.88,52.2320008 1166.252,52.3839993 1166.724,52.528 C1167.196,52.6720007 1167.792,52.839999 1168.512,53.032 C1169.36,53.2560011 1170.116,53.5079986 1170.78,53.788 C1171.444,54.0680014 1172.004,54.403998 1172.46,54.796 C1172.916,55.188002 1173.26,55.6479974 1173.492,56.176 C1173.724,56.7040026 1173.84,57.3359963 1173.84,58.072 L1173.84,58.12 C1173.84,58.9520042 1173.688,59.6919968 1173.384,60.34 C1173.08,60.9880032 1172.656,61.5319978 1172.112,61.972 C1171.568,62.4120022 1170.92,62.7479988 1170.168,62.98 C1169.416,63.2120012 1168.584,63.328 1167.672,63.328 L1167.672,63.328 Z M1192.464,59.968 C1193.2,59.968 1193.88,59.8320014 1194.504,59.56 C1195.128,59.2879986 1195.66,58.9120024 1196.1,58.432 C1196.54,57.9519976 1196.884,57.3960032 1197.132,56.764 C1197.38,56.1319968 1197.504,55.4560036 1197.504,54.736 L1197.504,54.688 C1197.504,53.9679964 1197.38,53.2880032 1197.132,52.648 C1196.884,52.0079968 1196.532,51.4480024 1196.076,50.968 C1195.62,50.4879976 1195.08,50.1080014 1194.456,49.828 C1193.832,49.5479986 1193.152,49.408 1192.416,49.408 C1191.664,49.408 1190.98,49.5439986 1190.364,49.816 C1189.748,50.0880014 1189.22,50.4639976 1188.78,50.944 C1188.34,51.4240024 1187.996,51.9799968 1187.748,52.612 C1187.5,53.2440032 1187.376,53.9199964 1187.376,54.64 L1187.376,54.688 C1187.376,55.4080036 1187.5,56.0879968 1187.748,56.728 C1187.996,57.3680032 1188.348,57.9279976 1188.804,58.408 C1189.26,58.8880024 1189.796,59.2679986 1190.412,59.548 C1191.028,59.8280014 1191.712,59.968 1192.464,59.968 L1192.464,59.968 Z M1192.416,63.376 C1191.11999,63.376 1189.92801,63.1480023 1188.84,62.692 C1187.75199,62.2359977 1186.812,61.6200039 1186.02,60.844 C1185.228,60.0679961 1184.612,59.1560052 1184.172,58.108 C1183.732,57.0599948 1183.512,55.936006 1183.512,54.736 L1183.512,54.688 C1183.512,53.487994 1183.736,52.3640052 1184.184,51.316 C1184.632,50.2679948 1185.252,49.348004 1186.044,48.556 C1186.836,47.763996 1187.77999,47.1400023 1188.876,46.684 C1189.97201,46.2279977 1191.16799,46 1192.464,46 C1193.76001,46 1194.95199,46.2279977 1196.04,46.684 C1197.12801,47.1400023 1198.068,47.7559961 1198.86,48.532 C1199.652,49.3080039 1200.268,50.2199948 1200.708,51.268 C1201.148,52.3160052 1201.368,53.439994 1201.368,54.64 L1201.368,54.688 C1201.368,55.888006 1201.144,57.0119948 1200.696,58.06 C1200.248,59.1080052 1199.628,60.027996 1198.836,60.82 C1198.044,61.612004 1197.10001,62.2359977 1196.004,62.692 C1194.90799,63.1480023 1193.71201,63.376 1192.416,63.376 L1192.416,63.376 Z M1211.28,54.76 C1212.208,54.76 1212.928,54.5160024 1213.44,54.028 C1213.952,53.5399976 1214.208,52.9360036 1214.208,52.216 L1214.208,52.168 C1214.208,51.3359958 1213.94,50.7040022 1213.404,50.272 C1212.868,49.8399978 1212.136,49.624 1211.208,49.624 L1208.352,49.624 L1208.352,54.76 L1211.28,54.76 Z M1204.656,46.288 L1211.52,46.288 C1212.52801,46.288 1213.428,46.4279986 1214.22,46.708 C1215.012,46.9880014 1215.684,47.3839974 1216.236,47.896 C1216.788,48.4080026 1217.212,49.0199964 1217.508,49.732 C1217.804,50.4440036 1217.952,51.2319957 1217.952,52.096 L1217.952,52.144 C1217.952,53.1200049 1217.776,53.9759963 1217.424,54.712 C1217.072,55.4480037 1216.588,56.0639975 1215.972,56.56 C1215.356,57.0560025 1214.636,57.4279988 1213.812,57.676 C1212.988,57.9240012 1212.104,58.048 1211.16,58.048 L1208.352,58.048 L1208.352,63.088 L1204.656,63.088 L1204.656,46.288 Z M1224.6,49.696 L1219.488,49.696 L1219.488,46.288 L1233.408,46.288 L1233.408,49.696 L1228.296,49.696 L1228.296,63.088 L1224.6,63.088 L1224.6,49.696 Z M1236.408,46.288 L1240.104,46.288 L1240.104,63.088 L1236.408,63.088 L1236.408,46.288 Z M1244.304,46.288 L1248.288,46.288 L1252.704,53.392 L1257.12,46.288 L1261.104,46.288 L1261.104,63.088 L1257.432,63.088 L1257.432,52.12 L1252.704,59.296 L1252.608,59.296 L1247.928,52.192 L1247.928,63.088 L1244.304,63.088 L1244.304,46.288 Z M1265.304,46.288 L1269,46.288 L1269,63.088 L1265.304,63.088 L1265.304,46.288 Z M1272.696,60.28 L1281.936,49.528 L1272.984,49.528 L1272.984,46.288 L1286.688,46.288 L1286.688,49.096 L1277.448,59.848 L1286.688,59.848 L1286.688,63.088 L1272.696,63.088 L1272.696,60.28 Z M1290.192,46.288 L1302.864,46.288 L1302.864,49.576 L1293.864,49.576 L1293.864,52.984 L1301.784,52.984 L1301.784,56.272 L1293.864,56.272 L1293.864,59.8 L1302.984,59.8 L1302.984,63.088 L1290.192,63.088 L1290.192,46.288 Z M1313.712,54.448 C1314.624,54.448 1315.324,54.2320022 1315.812,53.8 C1316.3,53.3679978 1316.544,52.7920036 1316.544,52.072 L1316.544,52.024 C1316.544,51.223996 1316.288,50.624002 1315.776,50.224 C1315.264,49.823998 1314.552,49.624 1313.64,49.624 L1309.968,49.624 L1309.968,54.448 L1313.712,54.448 Z M1306.272,46.288 L1313.952,46.288 C1316.08001,46.288 1317.71199,46.8559943 1318.848,47.992 C1319.808,48.9520048 1320.288,50.231992 1320.288,51.832 L1320.288,51.88 C1320.288,53.2400068 1319.956,54.3479957 1319.292,55.204 C1318.628,56.0600043 1317.76001,56.687998 1316.688,57.088 L1320.792,63.088 L1316.472,63.088 L1312.872,57.712 L1312.824,57.712 L1309.968,57.712 L1309.968,63.088 L1306.272,63.088 L1306.272,46.288 Z" id="logo"></path>
        </g>
    </g>
</svg>